# xmcd CD Database Entry
#
# Track frame offsets:
# 150
# 31275
# 54600
# 94950
# 148500
# 167250
# 181951
# 224475
#
# Disc length: 3402 seconds
#
# Revision: 3
# Processed by: cddbd v1.4PL0 Copyright (c) Steve Scherf et al.
# Submitted via: tcd 2.0b
#
DISCID=6c0d4808
DTITLE=Dogstar Poets - Off-Planet
DYEAR=2002
DGENRE=
TTITLE0=Burning Bridges
TTITLE1=Karmakaze
TTITLE2=Avalon Mists
TTITLE3=Turn That Wave
TTITLE4=Dear John
TTITLE5=Magic Mile
TTITLE6=Passion Play
TTITLE7=Fare Thee Well
EXTD=YEAR: 2002
EXTT0=
EXTT1=
EXTT2=
EXTT3=
EXTT4=
EXTT5=
EXTT6=
EXTT7=
PLAYORDER=
